<?xml version="1.0" encoding="UTF-8" standalone="no"?>
<!-- Created with Inkscape (http://www.inkscape.org/) -->

<svg
   version="1.1"
   id="svg1"
   width="56"
   height="40.33334"
   viewBox="0 0 356 345.33334"
   sodipodi:docname="logo-jardineriaPedro.svg"
   inkscape:version="1.4 (86a8ad7, 2024-10-11)"
   xmlns:inkscape="http://www.inkscape.org/namespaces/inkscape"
   xmlns:sodipodi="http://sodipodi.sourceforge.net/DTD/sodipodi-0.dtd"
   xmlns="http://www.w3.org/2000/svg"
   xmlns:svg="http://www.w3.org/2000/svg">
  <defs
     id="defs1" />
  <sodipodi:namedview
     id="namedview1"
     pagecolor="#ffffff"
     bordercolor="#000000"
     borderopacity="0.25"
     inkscape:showpageshadow="2"
     inkscape:pageopacity="0.0"
     inkscape:pagecheckerboard="0"
     inkscape:deskcolor="#d1d1d1"
     showgrid="false"
     inkscape:zoom="2.2384169"
     inkscape:cx="178.0276"
     inkscape:cy="172.66667"
     inkscape:window-width="1920"
     inkscape:window-height="991"
     inkscape:window-x="-9"
     inkscape:window-y="-9"
     inkscape:window-maximized="1"
     inkscape:current-layer="svg1" />
  <path
     style="fill:#95ff00"
     d="m -37.666243,355.96054 c -36.445993,-4.16993 -64.558507,-21.62995 -77.032767,-47.84324 -7.34431,-15.43327 -9.83866,-27.59315 -9.85249,-48.03063 -0.0178,-26.32503 4.86571,-40.58506 18.51517,-54.06488 6.884492,-6.79893 12.395924,-10.62007 35.609849,-24.68869 6.548534,-3.96869 16.518186,-11.56865 22.154778,-16.88879 l 10.24836,-9.67299 1.45669,11.28459 c 1.65293,12.80473 4.84389,20.09389 11.10152,25.35933 3.45968,2.91114 5.21774,3.48739 8.8441,2.89891 8.8191398,-1.43115 12.2881298,-7.69719 12.2881298,-22.19609 0,-11.80931 -3.5855,-22.83193 -11.3121498,-34.77612 l -5.7793,-8.93387 7.9976,-12.22179 c 14.20255977,-21.704126 32.04407,-37.001783 50.10333,-42.959574 25.39678,-8.378454 61.27986,-5.37687 86.323853,7.220903 27.14027,13.652254 47.19271,38.394701 58.87978,72.650981 2.94277,8.62565 3.54624,12.79797 3.61858,25.01871 0.0754,12.7474 -0.39884,16.05584 -3.62451,25.28249 -4.60629,13.17576 -12.72707,25.43373 -24.32497,36.71751 -12.7171,12.37267 -23.461,27.34096 -32.12973,44.76281 -4.13872,8.31774 -8.02615,14.81341 -8.63872,14.43482 -0.61257,-0.37859 -1.11621,-4.10293 -1.11921,-8.27632 -0.0155,-21.60144 -5.78292,-65.59266 -11.36762,-86.70681 -1.81148,-6.8487 -3.2936,-12.9987 -3.2936,-13.66667 0,-0.66797 3.75,-1.22768 8.33333,-1.24378 13.60733,-0.0478 25.7535,-7.3067 30.61466,-18.29615 4.46908,-10.10311 0.68628,-13.46716 -12.36115,-10.99276 -3.86015,0.73206 -7.23414,1.11533 -7.49776,0.85172 -0.26361,-0.26361 1.00484,-3.68266 2.81879,-7.59787 8.79116,-18.97483 3.83711,-38.60233 -9.74337,-38.60233 -4.5548,0 -5.94907,0.76993 -10.03172,5.5396 -2.60793,3.04677 -6.101633,9.04677 -7.763783,13.33333 -1.66215,4.28656 -3.35704,7.79374 -3.76643,7.79374 -0.40939,0 -2.06215,-4.09166 -3.67281,-9.09257 -3.13866,-9.74525 -9.87911,-18.93948 -16.33071,-22.27573 -5.0974,-2.63597 -18.4804,-2.56644 -22.30999,0.1159 -6.45374,4.52038 -8.74028,14.98607 -5.40084,24.7201 0.85519,2.49277 3.5596,7.53083 6.00979,11.1957 2.4502,3.66488 3.90634,6.84626 3.23588,7.06975 -0.67047,0.22349 -3.40976,-0.50901 -6.08733,-1.62777 -8.18732,-3.42088 -17.49333,-4.1079 -21.3565,-1.57665 -4.59485,3.01066 -4.75491,12.99485 -0.31433,19.60743 3.50561,5.2203 13.46004,11.05846 22.62427,13.26888 7.2503,1.74878 7.86135,3.06965 2.66352,5.75755 -2.0184,1.04375 -4.76622,3.10925 -6.10627,4.58999 -5.54023,6.12188 5.4317,13.50001 20.15224,13.55147 9.08709,0.0318 15.62195,-2.12729 22.63965,-7.47995 2.47097,-1.8847 4.82787,-3.09153 5.23757,-2.68184 1.84665,1.84666 7.32125,27.3315 9.779463,45.52441 2.77449,20.53368 4.9786,52.66667 3.6126,52.66667 -0.42135,0 -3.41334,-5.2959 -6.648863,-11.76866 -10.62718,-21.26 -26.83489,-40.08306 -46.32991,-53.8059 -16.88371,-11.88471 -26.66667,-15.00093 -26.66667,-8.49427 0,5.54606 6.68636,24.8057 12.9849,37.40216 8.02661,16.05247 15.01982,25.45233 27.00282,36.29558 24.08536,21.79454 32.98709,31.20548 37.147623,39.27259 4.5102,8.74509 5.30895,14.51664 2.349,16.97318 -5.249,4.35628 -61.767003,9.31605 -64.050783,5.62081 -0.53289,-0.86223 -1.7989,-7.89106 -2.81335,-15.61963 -3.87523,-29.52325 -9.62203,-42.83503 -22.17126,-51.35705 -4.24514,-2.88281 -8.2541502,-6.27888 -8.9089202,-7.54681 -0.65478,-1.26794 -1.50836,-8.60534 -1.89686,-16.30534 -0.85516,-16.94928 -4.04559,-26.38557 -11.96159,-35.37863 -8.8706098,-10.07754 -18.4036098,-12.68722 -24.4088498,-6.68197 -4.35984,4.35984 -4.22784,9.71104 0.58891,23.87269 2.12389,6.24444 3.5888,11.62637 3.25534,11.95982 -0.33346,0.33346 -3.95626,-1.41096 -8.05067,-3.87649 -10.9809,-6.61235 -20.711768,-9.1358 -28.077337,-7.28113 -11.587744,2.91783 -17.655636,9.98064 -17.655636,20.55053 0,10.04712 8.950499,17.44626 25.361676,20.96582 3.651078,0.78302 6.638327,1.86354 6.638327,2.40117 0,0.53762 -3.29633,2.34374 -7.325174,4.01361 -16.121244,6.68188 -19.98695,16.22821 -9.712628,23.98525 6.467647,4.88303 22.754932,4.02238 34.265922,-1.81068 5.39293,-2.73281 19.43602,-12.81854 21.4385398,-15.39713 2.14534,-2.7625 11.81428,-7.98952 14.77901,-7.98952 6.1918902,0 12.2259602,5.32935 16.9438002,14.96495 7.11555,14.53259 11.12205,44.99141 6.16814,46.8924 -3.0871,1.18463 -54.20278,0.65651 -65.89095,-0.68078 z M 118.73866,343.24927 c -0.46461,-1.21075 0.19566,-7.66075 1.46725,-14.33333 6.09076,-31.96075 20.44774,-59.18393 43.39096,-82.27637 12.58349,-12.66532 21.59062,-19.24744 24.70387,-18.05278 6.33836,2.43226 -4.15247,50.30317 -15.78019,72.00686 -8.92674,16.66217 -25.20536,32.74086 -41.39975,40.89128 -9.02074,4.54001 -11.19797,4.85025 -12.38214,1.76434 z M -30.237673,291.3554 c -4.50996,-4.50997 1.01749,-16.89804 9.60512,-21.5269 3.96925,-2.13949 4.69793,-2.16875 8,-0.32132 6.5674498,3.67434 5.0565898,13.01564 -3.11299,19.24688 -6.05291,4.61678 -11.49909,5.59437 -14.49213,2.60134 z M -121.36957,183.37503 c -2.54286,-1.78109 -2.94894,-3.24733 -2.8619,-10.33334 0.12033,-9.79602 2.56493,-17.41541 5.78873,-18.04247 6.739,-1.3108 19.516482,10.15377 22.128746,19.85498 1.779318,6.60788 1.303789,7.12872 -8.417876,9.21995 -8.86083,1.90605 -13.17724,1.72468 -16.6377,-0.69912 z m 32.73493,-13.62368 c -3.115013,-8.77052 -10.386921,-16.79634 -19.06594,-21.04259 -4.01445,-1.96408 -7.29899,-3.89813 -7.29899,-4.29787 0,-1.58214 8.14569,-13.29896 11.31661,-16.27788 3.36416,-3.16047 3.37532,-3.16141 10.586851,-0.88817 8.413621,2.65216 19.130758,11.61205 24.16549,20.20317 3.772889,6.43795 4.624837,14.56319 1.816277,17.32228 -2.058391,2.02213 -17.256465,11.34701 -18.493834,11.34701 -0.421014,0 -1.782922,-2.86468 -3.026464,-6.36595 z m 158.442187,1.96686 c -6.12947,-4.48198 1.21456,-14.35854 12.21067,-16.42142 13.45403,-2.52399 18.900013,9.83937 6.96792,15.81844 -5.47315,2.74254 -15.80819,3.06748 -19.17859,0.60298 z M -59.762597,145.80098 c -4.569548,-9.33982 -13.698027,-18.70654 -23.770976,-24.39136 -8.821257,-4.97841 -8.579918,-5.90908 3.005177,-11.58888 13.502111,-6.61965 28.015591,-4.49876 35.202733,5.14424 2.96519,3.97841 4.41189,13.38994 3.11823,20.28573 -0.93883,5.00439 -9.832229,18.14653 -12.302339,18.17966 -0.83061,0.0111 -3.194381,-3.42208 -5.252825,-7.62939 z m 25.636614,-34.30622 c -12.81624,-4.5421 -19.927595,-19.186158 -12.62217,-25.992192 5.61521,-5.231367 16.08133,-2.795171 22.92309,5.335804 2.69066,3.197668 3.49216,5.598307 3.49216,10.459718 0,10.13807 -4.52324,13.48192 -13.79308,10.19667 z M -113.97978,99.323185 c -9.04012,-2.780257 -17.01979,-10.694818 -17.01979,-16.880918 0,-9.029456 12.33414,-15.423432 26.36946,-13.669835 8.993929,1.123718 19.688255,4.760865 27.556585,9.372014 7.582913,4.443883 19.407285,14.97899 19.407285,17.291221 0,4.853793 -43.42439,7.851533 -56.31354,3.887518 z M -15.691563,84.450627 C -13.089733,77.97989 0.18051677,65.58165 8.8514068,61.520422 14.512577,58.868874 16.191877,58.595025 18.985387,59.867836 c 6.35676,2.896335 2.97316,9.537432 -4.8973,9.612074 -5.4090902,0.0513 -13.61080023,4.694679 -21.9823502,12.445261 -4.4706198,4.139001 -8.5062498,7.525457 -8.9680798,7.525457 -0.46183,0 0.065,-2.25 1.17078,-5.000001 z m -7.70341,-14.666667 c 2.91279,-9.062136 3.2167,-11.779449 2.47047,-22.08855 l -0.85092,-11.755216 4.30004,0.421882 c 3.49268,0.342672 4.50494,1.172908 5.39137,4.421884 1.33941,4.909224 0.16827,13.65081 -3.10904,23.206448 -2.45205,7.1494 -8.24118,16.126886 -10.39943,16.126886 -0.61813,0 0.37075,-4.65 2.19751,-10.333334 z"
     id="path2"
     transform="matrix(1.0973565,0,0,1.0694494,144.54323,-37.34208)" />
</svg>
